<svg xmlns="http://www.w3.org/2000/svg" width="202" height="106" viewBox="0 0 202 106" xmlns:xlink="http://www.w3.org/1999/xlink">
  <defs>
    <polygon id="a" points="33.967 .123 33.967 51.797 .682 51.797 .682 .123 33.967 .123"/>
  </defs>
  <g fill="none" fill-rule="evenodd">
    <path fill="#362627" d="M43 54.9499653C40.5998583 55.0731813 39.8275314 56.5029832 39.0947266 58.5455573L29.2907858 84 28.7210095 84 21.3987247 65.1653167 14.1167854 84 13.547009 84 3.29515165 57.7293546C2.60351562 56.0126 1.95304841 54.9499653 0 54.9499653L0 54.0510673C.773150276 54.0510673 2.64386106 54.0105466 3.90527344 54.0105466 5.20703125 54.0105466 5.81715303 53.8881575 6.59030331 55.6446059L14.8891123 77.4224152 20.3810317 62.5901848C19.9742839 61.6102454 19.1204427 59.2410248 18.4288067 57.6466593 17.7371706 56.0531207 17.0858801 54.9499653 15.1740005 54.9499653L15.1740005 54.0510673C15.9471507 54.0510673 17.6968252 54.0105466 18.9574142 54.0105466 20.259172 54.0105466 20.8289484 53.8062892 21.5205844 55.1955704 21.6827895 55.5230438 22.1307062 56.5435039 22.5777995 57.7293546L30.1042816 77.4224152 35.7995749 62.2230176C36.979473 59.0367674 37.4265663 57.5242702 37.4265663 56.8304566 37.4265663 55.0318337 35.8810892 54.9499653 34.5793313 54.9499653L34.5793313 54.0510673C35.8399203 54.092415 37.0198185 54.1329357 38.1997166 54.1329357 39.7863626 54.1329357 41.413354 54.0510673 43 54.0510673L43 54.9499653M44.8001259 61.8765772C43.6796798 61.8765772 42.8393451 61.045539 42.8393451 59.9382886 42.8393451 58.8302376 43.6796798 58 44.8001259 58 45.8800936 58 46.7600971 58.8702684 46.7600971 59.9382886 46.7600971 61.0063088 45.8800936 61.8765772 44.8001259 61.8765772zM50 83C48.3598093 82.9599693 47.1203562 82.8422789 45.4801655 82.8422789 44.2399029 82.8422789 42.6393811 82.8807084 41.239633 83L41.239633 82.0504708C43.1202663 81.9319798 43.9597913 81.4964453 43.9597913 79.5981874L43.9597913 70.8955037C43.9597913 68.799494 42.9194927 68.8779543 41 68.6802024L41 67.8499648C42.3997481 67.7314738 44.3200504 67.3351694 45.9594315 67.3351694 46.9195826 67.3351694 47.1203562 68.1662076 47.1203562 68.8779543L47.1203562 79.4788958C47.1203562 81.536476 47.9598813 81.9319798 50 82.0504708L50 83 50 83zM60 83C58.3376789 82.9597435 56.8378157 82.8413893 55.1754946 82.8413893 54.203209 82.8413893 52.5006837 82.8011327 51.2436868 83L51.2436868 82.0451151C53.0676452 81.9259557 53.9595223 81.3688054 53.9595223 79.579L53.9595223 57.8195397C53.9595223 55.3526195 53.1086699 55.4725839 51 55.2729115L51 54.4774425C52.5810922 54.3188317 54.1621843 54 55.7834807 54 56.7976115 54 57.1619108 54.7165663 57.1619108 55.6311946L57.1619108 79.3801327C57.1619108 81.4082568 57.8921506 81.9259557 60 82.0451151L60 83M71 83C69.3376789 82.9597435 67.8378157 82.8413893 66.1754946 82.8413893 65.203209 82.8413893 63.4998633 82.8011327 62.2436868 83L62.2436868 82.0451151C64.0676452 81.9259557 64.9595223 81.3688054 64.9595223 79.579L64.9595223 57.8195397C64.9595223 55.3526195 64.1078494 55.4725839 62 55.2729115L62 54.4774425C63.5810922 54.3188317 65.1621843 54 66.7834807 54 67.7976115 54 68.1619108 54.7165663 68.1619108 55.6311946L68.1619108 79.3801327C68.1619108 81.4082568 68.8921506 81.9259557 71 82.0451151L71 83M81.8768946 69.0325432C78.1371534 69.0325432 76.411183 71.6520691 76.411183 75.0670952 76.411183 78.4813178 77.7670055 82.9674568 82.0823475 82.9674568 85.9044362 82.9674568 87.588817 80.3077541 87.588817 76.8935315 87.588817 73.4391322 86.150647 69.0325432 81.8768946 69.0325432zM81.9176525 84C76.9451941 84 73 80.982724 73 75.9799116 73 70.9779028 76.9451941 68 81.9176525 68 86.849353 68 91 70.9779028 91 75.9799116 91 80.982724 86.849353 84 81.9176525 84L81.9176525 84zM121 68.8888889C119.07914 69.0499847 117.812629 70.1408566 116.95395 71.7174691 115.319316 74.6670755 113.929546 77.6158643 112.33462 80.6464275 111.80353 81.7773689 111.231077 82.9091281 110.576727 84L110.087826 84 105.796084 75.1111111C104.364952 77.8178473 102.771681 81.5753859 101.176754 84L100.645664 84C98.5204743 79.5956251 96.5177168 75.0710416 94.188198 70.7075539 93.3295188 69.0107329 92.757066 68.9297761 91 68.8079321L91 68C91.6948849 68.0408873 92.3897698 68.0408873 93.0432924 68.0408873L95.3322763 68.0408873C96.3547498 68.0408873 96.6401489 68.4039661 97.0488074 69.2519677 98.8067007 72.6873147 100.318903 76.2420525 101.913829 79.7976081 103.017372 77.7377083 103.997656 75.6769907 105.019302 73.5762036 104.038191 71.515486 103.466566 69.0107329 100.808631 68.8079321L100.808631 68C101.339721 68.0408873 101.913829 68.0809568 102.525989 68.0809568 103.302771 68.0809568 103.997656 68.0408873 104.773611 68.0408873 105.796084 68.0408873 106.082311 68.4039661 106.490969 69.2519677 108.248863 72.6873147 109.718875 76.2420525 111.313801 79.7976081 111.80353 78.6666667 115.727975 71.6356946 115.727975 70.2627006 115.727975 69.1317592 114.624431 69.0107329 113.766579 68.8888889L113.766579 68.0408873C115.073625 68.0809568 116.382325 68.121844 117.68937 68.121844 118.833448 68.121844 119.855922 68.1619135 121 68.0408873L121 68.8888889M126.876084 84C125.203222 84 123.735233 83.5617983 122.467988 83.5617983 122.142503 83.5617983 121.816192 83.6020742 121.529533 83.6407391L121 79.4625183 121.97976 79.4625183C122.836431 81.3724009 124.87691 82.8851634 127.041305 82.8851634 128.959521 82.8851634 130.469641 82.0490359 130.469641 80.019131 130.469641 76.0793435 121.326311 78.228465 121.326311 72.4182651 121.326311 69.3532699 124.141677 68 126.836431 68 128.263941 68 129.365964 68.5179479 130.590252 68.5179479 130.918216 68.5179479 131.244527 68.5179479 131.571665 68.3987313L132.060719 71.9800634 131.040479 71.9800634C130.264767 70.1893974 128.959521 69.0350904 126.876084 69.0350904 125.448575 69.0350904 123.652623 69.4732921 123.652623 71.2236822 123.652623 75.1239994 133 72.8161909 133 78.9059055 133 82.5661783 129.489054 84 126.876084 84M148.5 57.7424662C145.905361 57.7424662 146.757932 55.287669 144.041028 55.287669 140.958972 55.287669 141.041028 60.0359993 141.041028 62.1690829L141.081236 68.0845415 146.514223 68.0845415 146.270514 69.4129337 141.081236 69.4129337C141.202681 72.7921486 141.162473 76.1729923 141.162473 79.5937449 141.162473 83.8191888 141.526805 90.9416843 138.283917 94 137.797319 93.838736 137.269694 93.6375631 136.783917 93.5170223 138.041028 92.1894445 138.120624 88.4062551 138.120624 86.5150676L138.120624 80.8406907C138.120624 77.0583157 138.080416 73.2352175 138.000821 69.4129337L135 69.4129337 135.242068 68.0845415C136.864333 68.0845415 138.000821 66.9980453 138.000821 65.4684802 138.000821 60.4790683 139.458972 54 145.663293 54 147.081236 54 150 54.3225281 150 56.3342564 150 57.179671 149.310722 57.7424662 148.5 57.7424662M155.876895 69.0325432C152.136322 69.0325432 150.409519 71.6520691 150.409519 75.0670952 150.409519 78.4813178 151.766174 82.9674568 156.081516 82.9674568 159.903604 82.9674568 161.588817 80.3077541 161.588817 76.8935315 161.588817 73.4391322 160.150647 69.0325432 155.876895 69.0325432zM155.916821 84C150.944362 84 147 80.982724 147 75.9799116 147 70.9779028 150.944362 68 155.916821 68 160.849353 68 165 70.9779028 165 75.9799116 165 80.982724 160.849353 84 155.916821 84L155.916821 84zM177.284907 71.0706327C175.769976 71.0706327 175.569814 70.1817438 174.57385 70.1817438 172.380952 70.1817438 172.101695 74.9091281 172.101695 78.0198303L172.101695 80.3234182C172.101695 82.505162 173.338176 82.9091281 175.251816 83.0301543L175.251816 84C173.536723 83.9591127 171.862793 83.8389042 170.1477 83.8389042 168.911219 83.8389042 167.514931 83.798017 166.279257 84L166.279257 83.0301543C168.353511 82.9091281 168.950767 82.505162 168.950767 80.4444444L168.950767 72.7273842C168.950767 70.1416743 168.632768 69.5757947 166 69.3738117L166 68.4849228C167.435835 68.2420525 169.230024 68 170.50686 68 172.101695 68 172.021792 70.8285802 172.021792 71.5555556 172.858757 69.6567515 174.33414 68 176.646489 68 177.683616 68 179 68.5258101 179 69.4547685 179 70.3436574 178.283293 71.0706327 177.284907 71.0706327M194.013264 73.972501C194.013264 71.119758 192.287322 68.7966451 189.315091 68.7966451 185.89979 68.7966451 184.173848 71.2418534 184.173848 74.5838031 184.173848 78.1707686 185.739635 81.8798295 189.796372 81.8798295 191.484104 81.8798295 193.170211 81.0647601 194.013264 79.5567166L194.013264 73.972501zM200 82.8590678C199.477258 83.5916403 198.23097 84 197.308245 84 195.660348 84 194.254717 82.8590678 194.054726 81.1868555 192.527149 82.4102846 190.559754 84 188.511874 84 183.690942 84 181 80.4947064 181 75.7659838 181 71.2418534 184.575457 67.573216 189.033803 67.573216 191.082495 67.573216 192.448291 68.1440946 193.853109 69.6117146L193.853109 58.0357487C193.853109 55.1821807 192.406829 55.6713873 190.880878 55.3455245L190.880878 54.5304551C192.448291 54.3266877 194.175859 54 195.740833 54 196.705019 54 197.026956 54.6525505 197.026956 55.5897154L197.026956 79.5162931C197.026956 80.8205692 197.468401 82.4515331 198.994352 82.4515331 199.356938 82.4515331 199.67725 82.3690362 200 82.2477657L200 82.8590678 200 82.8590678zM126.710558 11.5587398C128.050397 10.2665287 129.085245 8.21500194 130.042623 7.15244534 131 6.0874628 131 5.89985768 131 5.89985768 131 5.89985768 127.532565 6.46752491 125.882027 8.67026782 124.237197 10.874628 123.558715 12.6560681 123.097967 14.3655389 122.848429 15.2938608 122.51245 17.6324557 122.257203 19.5788588 122.416223 18.6416419 122.633141 17.656715 122.920191 16.9127636 123.682668 14.9396752 125.368272 12.8493337 126.710558 11.5587398zM124.10672 17.3316406C122.87534 19.6492108 122.008481 22.1923923 121.894313 22.5320223L121.908177 22.3508863C121.962814 21.9020895 122.093291 20.8225514 122.257203 19.5788588 122.090029 20.5516561 121.986463 21.4718916 121.93101 22.0282378L121.991356 21.1759283 122.02316 21.1921012 122.303686 18.1119809C122.303686 18.1119809 123.385017 11.4447212 122.685332 7.67321128 121.986463 3.89927546 120.275579 0 120.275579 0 120.275579 0 119.387518 4.40225126 119.957541 7.6093285 120.529194 10.8164057 121.080461 12.3261418 121.343047 13.6466555 121.605632 14.9566567 122.101446 18.0311166 121.683919 20.2492237 121.661901 19.9354703 121.612156 19.290982 121.500435 18.0149437 121.30635 15.8510157 120.793411 13.2277785 119.767533 11.2926963 118.74247 9.35437961 118.052571 8.4430392 117.591823 7.94895847 117.133522 7.45649502 116.595303 7.15244534 116.595303 7.15244534 116.595303 7.15244534 116.826085 8.02577953 117.016908 8.89911373 117.210177 9.77244792 117.286017 11.5959374 117.440959 12.2792405 117.591823 12.964161 118.205067 14.3703907 118.74247 15.0884655 119.279058 15.8122008 120.198108 16.988776 120.579754 17.8257213 120.963847 18.6610493 121.110634 19.3548648 121.343047 20.5265882 121.37485 20.6842735 121.401761 20.8379156 121.430303 20.9899405 121.481679 21.4201384 121.510221 22.1657071 121.343047 23.3333872 121.059258 25.3469078 121.07883 25.4795252 120.985049 25.7827662 120.887191 26.0868159 120.830108 26.050427 120.639285 25.8773774 120.639285 25.8773774 121.30635 23.1433562 119.354898 20.0478717 117.401 16.9507698 116.099489 16.4008927 116.099489 16.4008927 116.099489 16.4008927 115.98369 18.7564691 116.348211 19.913637 116.711101 21.074848 116.97858 21.4718916 118.243395 23.2193686 119.135533 24.4525488 119.911058 25.540982 120.290258 26.0763035 120.333478 26.1337172 120.366913 26.1830444 120.398717 26.2283284 120.441122 26.4110816 120.473741 26.8056993 120.444384 27.6466878 120.3873 29.4313624 120.236436 30.4753202 119.987713 31.7101177 119.73736 32.943298 118.837882 35.2616768 118.837882 35.2616768 118.837882 35.2616768 118.664184 34.5015526 118.858269 32.6982792 119.048277 30.8917713 119.085789 28.7658494 118.413831 27.1129836 117.745134 25.4601177 117.419756 25.4035127 116.463195 24.2447276 115.504186 23.0883685 114.54844 21.7015461 114.54844 21.7015461 114.54844 21.7015461 114.355986 23.8460668 114.700935 25.6121426 115.045069 27.379027 115.045069 27.7598978 115.639556 29.1451029 116.231597 30.5319252 116.90274 31.6527041 117.459715 32.5260383 118.014244 33.4001811 118.224638 33.7980334 118.302109 34.4829538 118.377134 35.1654483 118.377134 36.3808384 117.55268 38.2229266 116.730673 40.0674408 114.586767 42.8960732 114.586767 42.8960732 114.586767 42.8960732 115.659943 40.5801203 115.828749 38.8900569 116.002446 37.1975676 115.867076 35.0716457 115.372078 33.6468172 114.871371 32.2219886 114.14396 30.9111787 113.744373 30.4559128 113.339893 29.9998383 112.173752 29.2227326 112.173752 29.2227326 112.173752 29.2227326 111.94134 30.7025488 112.01881 31.575883 112.093835 32.4508345 112.210449 33.3241687 112.632054 34.5395588 113.052843 35.7549489 113.627759 36.5716781 114.010221 37.2177837 114.395129 37.8630806 114.909699 39.0032669 114.909699 40.0674408 114.909699 41.1291888 114.833859 41.5092509 114.355986 42.4602148 113.876481 43.4087527 112.057138 45.7449217 112.057138 45.7449217L111.881809 45.9301009C111.876101 45.2467978 112.048983 43.6473024 112.000054 43.2381291 111.94134 42.7634558 111.156029 42.6106223 110.87061 43.693395 110.636566 44.5691551 111.204958 45.9260577 111.431662 46.4152866L111.403121 46.4484409C110.910569 45.8185082 109.02354 43.401475 108.723442 42.858067 108.378493 42.2305602 107.997662 40.2736447 108.131402 39.2280696 108.265141 38.1824945 108.589703 37.6738582 109.336686 36.5126472 110.082038 35.356288 110.351147 34.2921141 110.716484 32.9263165 111.079374 31.5564756 110.966022 28.9922694 110.966022 28.9922694 110.966022 28.9922694 110.544417 29.0504917 109.432097 30.1324557 108.320594 31.2152284 107.806024 32.8680942 107.267805 34.7489973 106.732848 36.6299004 107.155268 39.5361625 107.409699 40.6553241 107.664945 41.7785289 108.475536 43.1799068 108.475536 43.1799068 108.475536 43.1799068 107.038654 41.2990038 106.254974 40.0092185 105.468033 38.717816 104.816462 36.9331414 104.625639 35.7169427 104.433185 34.5015526 104.702294 33.9888731 104.951832 33.3807737 105.200555 32.7726743 106.273731 31.3866606 106.809503 30.3046966 107.34446 29.2227326 107.806024 27.8165028 108.225182 25.8029823 108.649233 23.7894618 108.225182 21.6037003 108.225182 21.6037003 108.225182 21.6037003 107.959335 22.2506146 107.409699 23.1263747 106.858432 23.9980916 106.387083 24.1501164 105.085571 25.9355997 103.781614 27.7218916 103.93574 31.272642 104.089051 32.9052918 104.243177 34.5395588 104.165706 35.6029241 104.165706 35.6029241 104.165706 35.6029241 104.109438 35.469498 103.918615 34.9948247 103.725345 34.52096 103.07459 32.5826433 102.767152 31.026006 102.461346 29.4669427 102.481733 28.2887502 102.481733 26.9407427 102.481733 25.5943524 102.80548 25.6121426 103.80037 24.3773451 104.797706 23.1433562 105.219311 22.688899 106.176688 20.8662181 107.135696 19.0411114 106.961998 16.269084 106.961998 16.269084 106.961998 16.269084 107.05741 16.1550653 105.219311 17.8637275 103.382027 19.5731983 102.481733 22.2506146 102.289279 23.7134493 102.09601 25.1762841 102.059313 26.5242916 102.059313 26.5242916 102.059313 26.5242916 101.752691 25.1180618 101.636077 24.2447276 101.522725 23.3713935 101.427313 22.6694915 101.484397 21.074848 101.542296 19.4777785 101.923943 18.6052529 102.785908 17.2176219 103.647874 15.8316082 103.419539 16.3628865 104.509025 14.5579959 105.601772 12.7547225 105.485974 11.7293634 105.659672 10.2479299 105.830923 8.76568767 106.502066 7.05621685 106.502066 7.05621685 106.502066 7.05621685 105.812167 7.37886531 104.759378 8.76568767 103.704958 10.15251 103.494563 10.6651895 102.423018 13.1930069 102.034033 14.1108164 101.804882 14.892774 101.664619 15.5906327 101.68419 15.048842 101.696423 14.6307737 101.702947 14.405971 101.706209 14.1504399 101.749429 13.6215875 101.790203 12.9407103 101.918234 12.4603765 102.058497 11.9282896 102.212624 11.3298939 102.976732 8.348428 102.80548 9.39319446 103.07459 6.37372234 103.343699 3.35344158 102.652169.0283024971 102.652169.0283024971 102.652169.0283024971 101.741274 2.1267305 100.999185 4.50171432 100.25791 2.1267305 99.3461998.0283024971 99.3461998.0283024971 99.3461998.0283024971 98.6579319 3.35344158 98.9254105 6.37372234 99.192889 9.39319446 99.020822 8.348428 99.7865608 11.3298939 99.9415027 11.9299068 100.081766 12.4619938 100.20735 12.9431362 100.252202 13.6248221 100.292976 14.1504399 100.297869 14.405971 100.301131 14.6307737 100.31581 15.048842 100.336197 15.5906327 100.194302 14.8943913 99.9667826 14.1108164 99.5753507 13.1930069 98.5038056 10.6651895 98.2917799 10.15251 97.2398065 8.76568767 96.186202 7.37886531 95.4971186 7.05621685 95.4971186 7.05621685 95.4971186 7.05621685 96.1674459 8.76568767 96.3386974 10.2479299 96.5115799 11.7293634 96.3974122 12.7547225 97.4877134 14.5579959 98.5796455 16.3628865 98.3488638 15.8316082 99.2124606 17.2176219 100.073611 18.6052529 100.456073 19.4777785 100.514787 21.074848 100.57024 22.6694915 100.47646 23.3713935 100.361477 24.2447276 100.247309 25.1180618 99.9398717 26.5242916 99.9398717 26.5242916 99.9398717 26.5242916 99.9031749 25.1762841 99.7107209 23.7134493 99.5190823 22.2506146 98.6179733 19.5731983 96.7798739 17.8637275 94.9401435 16.1550653 95.037186 16.269084 95.037186 16.269084 95.037186 16.269084 94.8659345 19.0411114 95.8224965 20.8662181 96.7798739 22.688899 97.2014787 23.1433562 98.1988148 24.3773451 99.192889 25.6121426 99.5190823 25.5943524 99.5190823 26.9407427 99.5190823 28.2887502 99.5386539 29.4669427 99.2312167 31.026006 98.9254105 32.5826433 98.2738393 34.52096 98.0830162 34.9948247 97.8897467 35.469498 97.8342938 35.6029241 97.8342938 35.6029241 97.8342938 35.6029241 97.7584538 34.5395588 97.9093183 32.9052918 98.0634446 31.272642 98.2167555 27.7218916 96.9136131 25.9355997 95.6112863 24.1501164 95.1399369 23.9980916 94.5903012 23.1263747 94.03985 22.2506146 93.7731869 21.6037003 93.7731869 21.6037003 93.7731869 21.6037003 93.3523975 23.7894618 93.7731869 25.8029823 94.1931608 27.8165028 94.6539089 29.2227326 95.1904969 30.3046966 95.725454 31.3866606 96.800261 32.7726743 97.0481679 33.3807737 97.2968903 33.9888731 97.5651843 34.5015526 97.3727302 35.7169427 97.1827226 36.9331414 96.5311515 38.717816 95.7450256 40.0092185 94.9605306 41.2990038 93.5228335 43.1799068 93.5228335 43.1799068 93.5228335 43.1799068 94.3350549 41.7785289 94.5903012 40.6553241 94.844732 39.5361625 95.2663368 36.6299004 94.7305643 34.7489973 94.1931608 32.8680942 93.6777754 31.2152284 92.5662716 30.1324557 91.4555833 29.0504917 91.033163 28.9922694 91.033163 28.9922694 91.033163 28.9922694 90.9189953 31.5564756 91.2827009 32.9263165 91.6472219 34.2921141 91.9147004 35.356288 92.6616832 36.5126472 93.4094814 37.6738582 93.7348592 38.1824945 93.8685985 39.2280696 94.0023377 40.2736447 93.619876 42.2305602 93.2749266 42.858067 92.9756442 43.401475 91.0894313 45.8201255 90.5968794 46.4484409L90.567522 46.4152866C90.7942264 45.927675 91.3609873 44.5691551 91.12939 43.693395 90.8415244 42.6106223 90.0578449 42.7634558 89.9999456 43.2381291 89.9502012 43.6473024 90.1247146 45.2467978 90.1149288 45.9309096L89.9420463 45.7449217C89.9420463 45.7449217 88.1227031 43.4087527 87.6440144 42.4602148 87.1653256 41.5092509 87.0886702 41.1291888 87.0886702 40.0674408 87.0886702 39.0032669 87.6056866 37.8630806 87.9889638 37.2177837 88.3714255 36.5716781 88.9455257 35.7549489 89.3671306 34.5395588 89.7887355 33.3241687 89.9045341 32.4508345 89.980374 31.575883 90.0578449 30.7025488 89.8262477 29.2227326 89.8262477 29.2227326 89.8262477 29.2227326 88.6601066 29.9998383 88.2564423 30.4559128 87.8552245 30.9111787 87.1269979 32.2219886 86.6295531 33.6468172 86.1304773 35.0716457 85.9967381 37.1975676 86.168805 38.8900569 86.3416875 40.5801203 87.4148635 42.8960732 87.4148635 42.8960732 87.4148635 42.8960732 85.269327 40.0674408 84.4456888 38.2229266 83.6212352 36.3808384 83.6212352 35.1654483 83.6978906 34.4829538 83.7753615 33.7980334 83.9857562 33.4001811 84.5411004 32.5260383 85.0964445 31.6527041 85.7667718 30.5319252 86.3604436 29.1451029 86.9541155 27.7598978 86.9541155 27.379027 87.3006959 25.6121426 87.6440144 23.8460668 87.4523758 21.7015461 87.4523758 21.7015461 87.4523758 21.7015461 86.4941829 23.0883685 85.5368055 24.2447276 84.5794281 25.4035127 84.2540502 25.4601177 83.5845384 27.1129836 82.9150266 28.7658494 82.9517234 30.8917713 83.1425465 32.6982792 83.3350005 34.5015526 83.1629336 35.2616768 83.1629336 35.2616768 83.1629336 35.2616768 82.26264 32.943298 82.0122866 31.7101177 81.7635642 30.4753202 81.6102533 29.4313624 81.553985 27.6466878 81.5262586 26.806508 81.5580624 26.4110816 81.601283 26.2283284 81.6322714 26.1846617 81.6673372 26.1337172 81.7072959 26.0763035 82.0881266 25.5425993 82.8636512 24.4525488 83.7557899 23.2193686 85.0197891 21.4718916 85.2872676 21.074848 85.6509731 19.913637 86.0154942 18.7564691 85.9013265 16.4008927 85.9013265 16.4008927 85.9013265 16.4008927 84.5989997 16.9507698 82.6442862 20.0478717 80.6912037 23.1433562 81.3615309 25.8773774 81.3615309 25.8773774 81.1707078 26.050427 81.1128085 26.0868159 81.017397 25.7827662 80.9211699 25.4795252 80.9407415 25.3469078 80.6553224 23.3333872 80.4914102 22.1640898 80.5183212 21.4185212 80.5696966 20.9883232 80.5966076 20.8379156 80.6251495 20.6826562 80.6553224 20.5265882 80.8885506 19.3548648 81.0361531 18.6610493 81.4194302 17.8257213 81.8027074 16.988776 82.7209416 15.8122008 83.2583451 15.0884655 83.7941176 14.3703907 84.4073611 12.964161 84.5598565 12.2792405 84.7131673 11.5959374 84.7898228 9.77244792 84.9822768 8.89911373 85.1722844 8.02577953 85.4014353 7.15244534 85.4014353 7.15244534 85.4014353 7.15244534 84.8656627 7.45649502 84.4073611 7.94895847 83.9474285 8.4430392 83.2583451 9.35437961 82.2324671 11.2926963 81.2074046 13.2277785 80.6912037 15.8510157 80.4995651 18.0149437 80.3870284 19.290982 80.3380994 19.9322357 80.3177123 20.2467978 79.8977384 18.0294993 80.3951832 14.9542308 80.6553224 13.6466555 80.919539 12.3261418 81.4699902 10.8164057 82.041644 7.6093285 82.6124823 4.40225126 81.7236055 0 81.7236055 0 81.7236055 0 80.0127215 3.89927546 79.3138523 7.67321128 78.6166141 11.4447212 79.694683 18.1119809 79.694683 18.1119809L79.9760248 21.1921012 80.0086441 21.1759283 80.0689899 22.0395588C80.0143525 21.4815953 79.9099706 20.5524647 79.7427966 19.5691551 79.9067087 20.8225514 80.038817 21.9069414 80.0910079 22.3541208L80.1024247 22.5336395C79.989888 22.1956269 79.1262912 19.6492108 77.8957269 17.3316406 76.5738284 14.8434468 73.6046537 13.4380256 71.4786887 13.3814206 71.4786887 13.3814206 73.3559313 15.9270281 75.0978036 18.1111722 76.8413069 20.2945077 77.7619876 20.1998965 78.9297597 21.7185276 79.4190497 22.3573554 79.6628792 22.8530534 79.7884636 23.2226032 79.819452 23.7660111 79.8691965 24.4290982 79.9442209 24.9490555 80.0787757 25.8773774 81.1315646 29.9998383 81.9755899 33.3055699 82.8171686 36.6104929 84.8656627 40.1224285 84.8656627 40.1224285 84.8656627 40.1224285 82.4722192 37.1975676 81.553985 35.6223315 80.6341198 34.0446694 80.4041535 32.4508345 80.4041535 32.4508345 80.4041535 32.4508345 80.4416658 30.5885302 79.7909101 27.2827986 79.1401544 23.9803015 77.5189736 23.4676219 77.5189736 23.4676219 76.5232685 27.741299 77.1291726 27.6070643 77.6266174 29.5259736 78.1248777 31.4432656 79.7713385 33.1147302 80.1741872 33.9322681 80.577036 34.7489973 80.2891704 34.3317376 81.7252365 36.7803079 82.5366424 38.1598525 83.6244971 39.5377798 84.7474176 40.8235218 84.5655649 40.6593673 84.3926824 40.5073425 84.2679135 40.399793 83.8308144 40.017305 83.3651734 39.7472183 82.8840383 39.4447859 82.4037186 39.1423535 82.0391976 39.170656 81.9519409 39.4447859 81.8654996 39.7205331 81.9951615 39.8782184 82.1558117 40.0237741 82.3172774 40.1677125 83.1319452 40.4717622 84.2540502 40.9035774 84.8395673 41.1291888 85.2530173 41.4413249 85.5164184 41.6871523 85.635479 41.8181524 85.755355 41.9523871 85.8736001 42.0785354L85.876862 42.0841959 85.8752311 42.08177C86.367783 42.6154742 86.8497336 43.1224932 87.3006959 43.5995924 87.9922257 44.3297969 88.9895618 45.4335943 89.956725 46.5179842 89.7936284 46.8179907 89.5155485 47.1471083 89.1575514 47.530405 88.6601066 48.0624919 87.2036534 50 87.2036534 50L88.0705121 50C88.0705121 50 89.3312493 48.5638504 90.5495814 47.1843059 91.885343 48.6899987 93.0262042 50 93.0262042 50L93.7731869 50 91.7997173 47.7374175 90.9092095 46.7824104C91.5746439 46.0303726 92.1903338 45.3430263 92.5279439 44.9783284 93.5342503 43.8947471 95.529738 41.6709794 96.4618354 41.0636887 97.3939328 40.4555893 98.1221594 40.3836201 98.5878004 40.1677125 99.0542568 39.9501876 99.5052191 39.3865636 98.9523214 39.2280696 98.4002392 39.0695756 97.5537675 39.8216134 96.9568338 40.2825398 96.3590845 40.7450835 95.5868218 41.2795963 95.5868218 41.2795963 95.5868218 41.2795963 96.0671415 40.6876698 96.8263564 39.1124337 97.5831249 37.5380062 99.1341742 33.5885949 99.7482331 30.8553823 100.145373 29.0812201 100.65342 27.1647367 100.999185 25.2959633 101.344949 27.1647367 101.852996 29.0812201 102.250951 30.8553823 102.862564 33.5885949 104.416875 37.5380062 105.172013 39.1124337 105.932043 40.6876698 106.412363 41.2795963 106.412363 41.2795963 106.412363 41.2795963 105.6401 40.7450835 105.044797 40.2825398 104.445417 39.8216134 103.601392 39.0695756 103.045232 39.2280696 102.49315 39.3865636 102.943297 39.9501876 103.410569 40.1677125 103.877025 40.3836201 104.606883 40.4555893 105.536534 41.0636887 106.470262 41.6709794 108.46575 43.8947471 109.470425 44.9783284 109.808035 45.3430263 110.424541 46.0303726 111.09079 46.7824104L110.198652 47.7374175 108.225182 50 108.973796 50C108.973796 50 110.113841 48.6899987 111.448788 47.1843059 112.668751 48.5638504 113.928672 50 113.928672 50L114.797162 50C114.797162 50 113.339893 48.0624919 112.84408 47.530405 112.48282 47.1446824 112.207187 46.8179907 112.043275 46.5179842 113.009623 45.4335943 114.006959 44.3297969 114.700935 43.5995924 115.151897 43.1224932 115.633033 42.6154742 116.123953 42.08177L116.122322 42.0841959 116.125584 42.0785354C116.246276 41.9507698 116.366967 41.8165351 116.486844 41.6839177 116.749429 41.438899 117.162064 41.1291888 117.746765 40.9035774 118.868055 40.4717622 119.683538 40.1677125 119.844188 40.0237741 120.004839 39.8782184 120.1345 39.7205331 120.048059 39.4447859 119.960802 39.170656 119.595466 39.1423535 119.115146 39.4447859 118.634011 39.7472183 118.170001 40.017305 117.728825 40.399793 117.606502 40.5073425 117.434435 40.6585587 117.254213 40.8210959 118.377134 39.5361625 119.464989 38.1598525 120.275579 36.7803079 121.71083 34.3317376 121.422964 34.7489973 121.825813 33.9322681 122.2254 33.1147302 123.875122 31.4432656 124.372567 29.5259736 124.870827 27.6070643 125.475916 27.741299 124.481026 23.4676219 124.481026 23.4676219 122.860661 23.9803015 122.20909 27.2827986 121.556703 30.5885302 121.596662 32.4508345 121.596662 32.4508345 121.596662 32.4508345 121.365065 34.0446694 120.444384 35.6223315 119.525334 37.1975676 117.133522 40.1224285 117.133522 40.1224285 117.133522 40.1224285 119.182016 36.6104929 120.026041 33.3055699 120.866804 29.9998383 121.921224 25.8773774 122.054964 24.9490555 122.131619 24.4290982 122.178917 23.7660111 122.210721 23.2226032 122.337121 22.8546707 122.58095 22.3573554 123.071056 21.7185276 124.238828 20.1998965 125.157878 20.2945077 126.901381 18.1111722 128.644069 15.9270281 130.520496 13.3814206 130.520496 13.3814206 128.393715 13.4380256 125.425356 14.8434468 124.10672 17.3316406zM76.1155268 8.67026782C74.467435 6.46752491 71 5.89985768 71 5.89985768 71 5.89985768 71 6.0874628 71.9573774 7.15244534 72.9155703 8.21500194 73.9496031 10.2665287 75.2894422 11.5587398 76.6309123 12.8493337 78.3157008 14.9396752 79.0789931 16.9127636 79.3644123 17.6534804 79.5821464 18.6343641 79.7427966 19.5691551 79.4867348 17.6259865 79.1507557 15.2922435 78.9012178 14.3655389 78.4421007 12.6560681 77.7619876 10.874628 76.1155268 8.67026782L76.1155268 8.67026782z"/>
    <path fill="#94996C" d="M92.0007423 30C91.9944347 30.8471545 92.0243959 32.2382114 92.2443744 33.098374L92.276701 33.2284553C92.6031208 34.5073171 92.8609451 35.5146341 93.5240345 36.5837398 94.2494117 37.7528455 94.6128887 38.3382114 94.7540219 39.4934959 94.7721563 39.6455285 94.7824062 39.8170732 94.7839831 40 94.9810965 38.6934959 95.159287 36.604878 94.7642718 35.1609756 94.2391618 33.2471545 93.759782 31.702439 92.7820997 30.7121951 92.4541031 30.3804878 92.1970672 30.1528455 92.0007423 30M110.999522 30C110.805612 30.1512441 110.545488 30.3797365 110.218362 30.7123109 109.239351 31.7043422 108.762457 33.2476826 108.23748 35.1618149 107.8402 36.6059522 108.018345 38.6940966 108.216985 40 108.220138 39.8186697 108.228021 39.6470971 108.246939 39.4950398 108.389613 38.3395674 108.752998 37.7541064 109.475039 36.5848105 110.141902 35.5130916 110.397296 34.5039844 110.723633 33.2241015L110.755952 33.0988779C110.977451 32.2385754 111.004252 30.845666 110.999522 30M89.9260394 30C89.5851366 30.2671332 89.2070738 30.5820603 89.0325833 30.7928651 88.7159153 31.1752155 88.0098749 32.4656482 87.5033676 34.0104122 87.0655256 35.3426645 86.8910351 37.4891184 87.0687569 39.3488094 87.0889526 39.5562004 87.1220735 39.7755398 87.1648883 40 87.3280693 38.8136895 87.8806226 37.7374755 88.0712697 37.399505 88.1399349 37.2740463 88.214255 37.1443202 88.2950376 37.0077665 88.6424031 36.4077836 89.0729746 35.6610054 89.4001444 34.6539217 89.8185985 33.372877 89.9179612 32.4605274 89.9858186 31.6369378 90.0245943 31.1683878 89.9769325 30.5078092 89.9260394 30M113.07299 30C113.022075 30.5063615 112.9752 31.1689864 113.014801 31.6352148 113.081072 32.4634959 113.182095 33.3746051 113.598311 34.656306 113.926435 35.6656135 114.359622 36.4136282 114.706334 37.0130646 114.785536 37.1496883 114.859889 37.2794808 114.929393 37.403296 115.118509 37.7414397 115.672924 38.8156434 115.83537 40 115.876587 39.7779865 115.911339 39.5610964 115.931544 39.3535992 116.108536 37.4946631 115.934776 35.3488174 115.497548 34.0124669 114.990815 32.4669115 114.285269 31.1775254 113.967652 30.7932713 113.792276 30.5823585 113.414045 30.2672701 113.07299 30M87.9993674 23C87.6210031 23.453146 87.150531 23.9962896 86.6773499 24.5023289 86.4073476 24.7904792 86.1806903 25.011526 85.9829294 25.204942 85.4221556 25.7496645 85.1133236 26.0496566 84.5886705 27.1927844 84.0089332 28.4535407 83.8590323 30.1721797 84.1317436 32.4426462 84.1552221 32.6407989 84.1741854 32.8263204 84.1886337 33 84.3412437 32.7331649 84.5390045 32.4489619 84.7927524 32.0960764 85.3697806 31.2947817 86.116576 30.2053367 86.7721667 28.8553722 87.2932078 27.7817163 87.3789944 27.3743586 87.6092639 26.2880714 87.6589298 26.0551828 87.7149169 25.7938738 87.7817402 25.4899345 87.9668588 24.6562722 88.0056886 23.7231389 87.9993674 23M116.000781 23C115.993561 23.7216739 116.034171 24.6565338 116.21737 25.4887485 116.284152 25.7927359 116.341007 26.0540861 116.387934 26.2846427 116.620768 27.3734702 116.707404 27.7808922 117.229024 28.8547177 117.883305 30.2048954 118.628734 31.2945124 119.203599 32.0959337 119.458995 32.4488749 119.657535 32.7331228 119.809148 33 119.823587 32.8262929 119.842539 32.6407422 119.867807 32.4425582 120.141252 30.1717331 119.991444 28.4528227 119.409359 27.1934465 118.885935 26.048559 118.573685 25.7485195 118.015064 25.2013423 117.817426 25.0078958 117.591812 24.7891828 117.32288 24.500987 116.849992 23.9964469 116.379812 23.4516384 116.000781 23M108.972169 23C108.913399 23.0909018 108.846364 23.186588 108.778411 23.2838689 108.466196 23.7136592 108.185203 23.9767961 107.824319 24.3069133 107.421194 24.6816841 106.917058 25.1465593 106.140194 26.0794992 104.751755 27.746033 104.956531 31.2401722 105.108966 32.6643011 105.123658 32.7775297 105.131922 32.8915557 105.141105 33 105.299049 32.6746671 105.652587 32.2034128 106.059385 31.6587991 106.473529 31.1078064 106.943689 30.4802647 107.243048 29.9492066 107.856459 28.8679531 108.351411 27.4884778 108.80045 25.6122319 109.017164 24.7000239 109.026347 23.746352 108.972169 23M95.0255712 23C94.9759516 23.746352 94.9814649 24.7024161 95.1992396 25.6122319 95.6476532 27.4852883 96.1420108 28.8647636 96.7576606 29.9492066 97.0562967 30.4794673 97.5267634 31.1038195 97.9393406 31.6556096 98.3500801 32.201818 98.7038491 32.6714776 98.858221 33 98.8692475 32.8915557 98.8802741 32.7775297 98.8913006 32.6643011 99.0429159 31.2401722 99.2487451 27.746033 97.8612358 26.0794992 97.0838631 25.1481541 96.5821544 24.6816841 96.1760093 24.3085081 95.817646 23.9767961 95.5327931 23.7136592 95.2258871 23.2838689 95.1542144 23.186588 95.0871362 23.0909018 95.0255712 23M78.4430032 25C77.7608902 27.8061403 77.9777576 28.3670374 78.3521783 29.3357845 78.465246 29.6261605 78.5931421 29.9554187 78.7154776 30.3806416 79.0787769 31.6389374 80.0472661 32.8302234 80.7544023 33.6988694 80.8415199 33.8047615 80.9230769 33.9048626 81 34 80.9332716 33.7336152 80.9063948 33.5681588 80.9036145 33.5474768L80.8980538 33.5119037 80.8980538 33.474676C80.8989806 33.4573031 80.9286376 31.5669639 80.2103801 28.2843092 79.7803524 26.3195147 78.9675629 25.402059 78.4430032 25M125.556509 25C125.035944 25.4004044 124.219899 26.3178601 123.789183 28.2843092 123.073175 31.5669639 123.10189 33.4573031 123.10189 33.474676L123.103742 33.5119037 123.098185 33.5474768C123.09448 33.5681588 123.067618 33.7336152 123 34 123.075954 33.9048626 123.159319 33.8047615 123.246388 33.6972148 123.954059 32.8302234 124.922013 31.6389374 125.283259 30.3806416 125.406453 29.9554187 125.533352 29.6261605 125.647283 29.3357845 126.021497 28.3670374 126.240097 27.8077948 125.556509 25M117.000052 18C116.998332 18.7556222 117.038751 19.8750625 117.260625 20.5347326 117.626976 21.6293853 117.88325 21.9836082 119.193859 23.6803598 119.893882 24.5903048 120.525967 25.4178911 120.970576 26 121.056574 25.138031 121.046254 23.1646177 119.603209 21.02009 118.474916 19.3433283 117.564198 18.4509745 117.000052 18M85.9999867 18C85.4375912 18.4524833 84.5252035 19.3430599 83.3952529 21.0210852 81.9548669 23.1635855 81.9428279 25.1366044 82.029681 26 82.4742658 25.4164085 83.1054559 24.5889877 83.8054404 23.6808234 85.1142568 21.982812 85.3730963 21.6294594 85.7385674 20.5366244 85.9604298 19.8762866 86.0008466 18.7570701 85.9999867 18M97 8.91763738C97.1493743 9.47229924 97.2915594 10.1100781 97.358658 10.7174081 97.3890122 10.9906244 97.4113784 11.2498506 97.4313482 11.5008474 97.524807 12.6216923 97.5982959 13.5079992 98.4266442 14.9292173 99.0129582 15.9340276 99.1998757 16.2121815 99.399574 16.5043253 99.5617289 16.743801 99.7286767 16.9898602 100.1105 17.6309308 100.989172 19.0965877 101.390166 20.0421463 101.450874 21.7686754 101.50679 23.4104415 101.491613 23.4104415 101.547528 21.7686754 101.606639 20.0429692 102.007633 19.0982336 102.886305 17.6309308 103.268927 16.9906831 103.436673 16.7454469 103.599627 16.5043253 103.799325 16.2121815 103.986243 15.9356735 104.572557 14.9292173 105.400107 13.5079992 105.474394 12.6233382 105.566255 11.5016704 105.587024 11.2498506 105.610189 10.9906244 105.639744 10.7174081 105.710038 10.1100781 105.850626 9.47229924 106 8.91763738 105.852223 9.09127781 105.693264 9.29207528 105.523121 9.52414448 104.538209 10.8704751 104.334517 11.3765834 103.336026 13.8157789L103.287299 13.9342823C102.955001 14.7489934 102.720955 15.5192656 102.569983 16.2911838L101.725659 19.4891303C101.744031 18.9418749 101.756812 15.2180694 101.760007 14.9917608 101.7648 14.8197662 101.783172 14.5342059 101.806337 14.1655286L101.864649 13.3969022C101.987663 12.9072527 102.12186 12.3682267 102.272832 11.7608966 102.396645 11.2638406 102.496494 10.8754127 102.573977 10.5618724 102.903879 9.26656413 102.903879 9.26656413 103.017307 7.86180479L103.105973 6.78622163C103.252951 5.0745055 103.100382 3.24922359 102.940623 2 102.635484 2.82129456 102.249667 3.90593007 101.906186 5.04899435L101.499601 6.4052002 101.092216 5.04899435C100.748735 3.90757595 100.365315 2.82129456 100.059377 2.00164588 99.9004171 3.25086948 99.7462501 5.07615138 99.8924292 6.78622163L99.9834916 7.86345067C100.095323 9.26656413 100.095323 9.26656413 100.426023 10.5635183 100.504305 10.8754127 100.602556 11.2638406 100.72557 11.7608966 100.876542 12.3698725 101.012337 12.9097215 101.137747 13.400194L101.151327 13.4841339 101.193663 14.1671745C101.218425 14.5358518 101.235999 14.8197662 101.239194 14.9909379 101.24159 15.2180694 101.255969 18.9418749 101.274341 19.4891303L100.430816 16.2911838C100.280643 15.5184427 100.044999 14.7489934 99.711902 13.9342823L99.6631756 13.8157789C98.6678796 11.3765834 98.4601935 10.8704751 97.4768794 9.52414448 97.3059377 9.29207528 97.1477767 9.09127781 97 8.91763738M107 18C106.753402 18.2274494 106.421856 18.5350787 105.97567 18.9507057 104.093608 20.6991205 103.30268 23.4129679 103.146804 24.606668 103.084124 25.0983841 103.033814 25.5786459 103 26 103.096495 25.8780937 103.207835 25.7504602 103.334021 25.6080998 103.489897 25.4321947 103.678763 25.2219268 103.89567 24.9502966L104.161237 24.6197586C104.981856 23.6109634 105.392577 23.1012477 106.252784 21.4665576 106.814433 20.3906729 106.966186 18.9433422 107 18M96 18C96.0330169 18.9451718 96.1824185 20.396072 96.7461824 21.4672668 97.6079241 23.1055646 98.0189847 23.613748 98.8419315 24.6252046L99.1052414 24.9517185C99.3239785 25.2234043 99.5096987 25.4337152 99.6673545 25.6096563 99.7936442 25.7520458 99.9026001 25.8797054 100 26 99.9661577 25.5801964 99.9191085 25.099018 99.8547255 24.6080196 99.6978952 23.4140753 98.9046636 20.6996727 97.0235246 18.9509002 96.5753199 18.5351882 96.2459761 18.2291326 96 18M130 14C128.094109 14.3916568 125.859674 15.7308981 124.774306 17.8569113 124.021671 19.3327569 123.398108 20.9106236 123 22 123.578305 21.2339782 124.100455 20.8336756 124.653616 20.4100292 125.301485 19.9137577 125.972821 19.3984654 126.900623 18.1889117 128.059746 16.6776181 129.289272 14.9890846 130 14M73 14C73.7124042 14.9894054 74.9419301 16.6784865 76.0993774 18.1902703 77.0280172 19.4002162 77.6993534 19.9156757 78.3472222 20.4121081 78.9003831 20.8341622 79.4242098 21.2363243 80 22 79.6027299 20.9094054 78.9791667 19.3336216 78.2273707 17.8581622 77.1420019 15.7314595 74.907567 14.3917838 73 14M85 9C84.3610196 9.69212411 83.6367831 10.7916809 82.7894968 12.3591885 81.6143705 14.5301739 81.1669963 17.3489601 81 19 81.0219732 18.9480055 81.0457042 18.898568 81.0694353 18.8465735 81.4517688 18.029151 82.2700505 16.9628367 82.8686003 16.1846233L83.1006372 15.882032C83.6279938 15.1873508 84.2696111 13.7664507 84.4225445 13.0905217 84.4954955 12.7751449 84.5570204 12.150358 84.6167875 11.5434708 84.6879807 10.8027617 84.7626895 10.0381862 84.878708 9.52932151 84.9173808 9.3503239 84.9586904 9.17132629 85 9M118 9C118.04131 9.17132629 118.084377 9.3503239 118.123929 9.52932151 118.239068 10.0398909 118.312898 10.8061712 118.38497 11.5468803 118.446495 12.1793386 118.504505 12.7768496 118.576577 13.0905217 118.733026 13.7690078 119.373764 15.1890556 119.900242 15.882032L120.132279 16.1846233C120.731707 16.9628367 121.548231 18.029151 121.933201 18.8465735 121.955175 18.898568 121.978906 18.9480055 122 19 121.833004 17.3472554 121.38563 14.5267644 120.21314 12.3591885 119.364975 10.7916809 118.63898 9.69041937 118 9M121.223424 2C121.041957 3.61147965 120.85906 6.14549134 121.160554 8.1701709 121.481337 10.3053182 121.789976 11.6950191 122.035743 12.8115021 122.170772 13.4245559 122.289369 13.9524398 122.372959 14.4575557 122.467979 15.0149539 122.606581 15.9357994 122.703744 17 122.93308 14.643074 123.186706 10.8770519 122.800194 8.39616595 122.427971 5.99623342 121.710673 3.52462334 121.223424 2M81.7763771 2C81.2889078 3.42346193 80.5719991 5.732651 80.1988921 7.9717692 79.8136341 10.2896187 80.0673754 13.8089079 80.2953853 16 80.3925932 15.0087729 80.5326871 14.1506017 80.6256064 13.6309751 80.7106634 13.1585873 80.8278848 12.6633675 80.96369 12.0917782 81.2109985 11.0501631 81.5197767 9.75267124 81.8378469 7.76076932 82.1423365 5.86806883 81.9572125 3.50455517 81.7763771 2M131 7C129.818499 7.3283438 128.051483 7.99584742 127.030541 9.21574119 125.237347 11.3588605 124.573298 13.0314824 124.123037 14.5171415 124.08726 14.6438436 124.046248 14.8053114 124 15 124.9363 13.6147755 126.17801 12.3238049 127.212914 11.4314824 128.013962 10.7438918 128.736475 9.78203766 129.3726 8.93452438 129.852531 8.29483341 130.308028 7.68913568 130.757417 7.2433607 130.846422 7.1552873 130.926702 7.07571222 131 7M73 7C73.0733167 7.07571222 73.153616 7.1552873 73.2417706 7.2433607 73.6921446 7.69068083 74.1468828 8.29637856 74.6286783 8.93684211 75.2649626 9.78512796 75.986783 10.745437 76.7862843 11.4314824 77.8214464 12.3222598 79.0643392 13.6147755 80 15 79.9554863 14.8053114 79.913591 14.6438436 79.8760599 14.5171415 79.4291771 13.0322549 78.7667082 11.3604056 76.9695761 9.21574119 75.9475062 7.99584742 74.1817955 7.3283438 73 7"/>
    <path fill="#362627" d="M25.9934156 96.3517475C27.1489712 95.4456219 28.6205761 95 30.2658436 95 31.1201646 95 32.3234568 95.1744457 33.0666667 95.3811349 33.2567901 95.4299136 33.3679012 95.4605036 33.5102881 95.4456219 33.5259259 95.8110485 33.6049383 96.812251 33.7316872 97.7828636 33.6526749 97.8919955 33.4148148 97.9085306 33.3045267 97.8134536 33.0666667 96.7328824 32.3547325 95.4927471 30.0600823 95.4927471 27.6395062 95.4927471 25.581893 97.0346486 25.581893 100.325968 25.581893 103.663585 27.6864198 105.507253 30.2814815 105.507253 32.3234568 105.507253 33.2246914 104.172041 33.5893004 103.233672 33.6995885 103.15513 33.9374486 103.18572 34 103.297332 33.8897119 104.124089 33.4781893 105.173243 33.2411523 105.475009 33.0510288 105.507253 32.8617284 105.570913 32.6872428 105.633747 32.3390947 105.761067 31.2 106 30.1868313 106 28.762963 106 27.4016461 105.713942 26.2469136 104.93431 24.98107 104.060428 24 102.613604 24 100.563247 24 98.7997745 24.7909465 97.288463 25.9934156 96.3517475M48.434966 100.944382C48.434966 98.3219091 47.2931341 95.4927471 44.3046759 95.4927471 42.6769754 95.4927471 40.565034 96.6212702 40.565034 100.102743 40.565034 102.455693 41.6914028 105.507253 44.7742675 105.507253 46.6518201 105.507253 48.434966 104.076964 48.434966 100.944382zM39 100.611199C39 97.4323187 41.3471441 95 44.570805 95 48.1851139 95 50 97.6547163 50 100.451635 50 103.663585 47.5901894 106 44.570805 106 41.0972921 106 39 103.472604 39 100.611199L39 100.611199zM65.5420127 102.986902C65.5420127 103.472233 65.5420127 105.400919 65.590445 105.820529 65.5581568 105.919111 65.4595929 106 65.2803085 106 65.0840303 105.723631 64.6099038 105.157411 63.1892238 103.553121L59.3996107 99.2778246C58.9586221 98.7739563 57.8472289 97.446036 57.5039545 97.0904634L57.4716663 97.0904634C57.4062403 97.2842589 57.3900962 97.6566833 57.3900962 98.1436997L57.3900962 101.673305C57.3900962 102.435848 57.4223844 104.542321 57.6840886 105.027652 57.7979469 105.205439 58.1089331 105.302336 58.5167838 105.335197L59.0231985 105.38491C59.1209127 105.512984 59.1047686 105.708464 58.9909103 105.789353 58.2550796 105.756492 57.6840886 105.73964 57.0799597 105.73964 56.3934109 105.73964 55.9524223 105.756492 55.3805816 105.789353 55.2658736 105.708464 55.2497295 105.481808 55.3474438 105.38491L55.7884324 105.335197C56.1639949 105.302336 56.4256991 105.190272 56.5072693 105.0108 56.7366853 104.428571 56.7196915 102.451858 56.7196915 101.673305L56.7196915 96.9935657C56.7196915 96.5394102 56.7035474 96.1981616 56.3602731 95.8265799 56.1317067 95.5990808 55.7400001 95.4861739 55.3474438 95.4381463L55.0695954 95.4052853C54.9718812 95.3083876 54.9718812 95.0648794 55.1027333 95 55.7884324 95.0480276 56.6551152 95.0480276 56.9482579 95.0480276 57.2099621 95.0480276 57.4878104 95.032861 57.7002327 95 58.0265133 95.8265799 59.9706017 97.9642283 60.4940102 98.5633091L62.0778305 100.329376C63.1892238 101.593259 64.0057749 102.484718 64.7738938 103.261586L64.806182 103.261586C64.871608 103.180697 64.871608 102.92118 64.871608 102.581616L64.871608 99.1143623C64.871608 98.354347 64.855464 96.2478744 64.5453275 95.7625431 64.4467635 95.6159326 64.185909 95.5190349 63.5324981 95.4381463L63.2546498 95.4052853C63.1399418 95.3083876 63.1560859 95.0480276 63.286938 95 64.0380631 95.032861 64.5937597 95.0480276 65.2148824 95.0480276 65.9175752 95.0480276 66.3424197 95.032861 66.8972667 95 67.0281188 95.0808885 67.0281188 95.3083876 66.9304046 95.4052853L66.7009885 95.4381463C66.1784298 95.5190349 65.8521492 95.6487936 65.7867231 95.7768671 65.5088748 96.3616239 65.5420127 98.368671 65.5420127 99.1143623L65.5420127 102.986902M74.7730496 106C73.500394 106 72.6973995 105.586622 72.4089835 105.412176 72.2277384 105.061631 72.0307329 103.933108 72 103.18572 72.0756501 103.075761 72.3033885 103.043517 72.3632782 103.138595 72.5910165 103.949643 73.2119779 105.507253 74.9700552 105.507253 76.2419228 105.507253 76.8636722 104.632544 76.8636722 103.679293 76.8636722 102.97903 76.7265563 102.200225 75.6209614 101.452837L74.1820331 100.46817C73.4247439 99.9431793 72.5453113 99.0370537 72.5453113 97.7340849 72.5453113 96.2244269 73.6666667 95 75.6359338 95 76.105595 95 76.6516942 95.0793687 77.0449173 95.2066892 77.2419228 95.2538144 77.4539007 95.302593 77.5752561 95.302593 77.7115839 95.6837279 77.8479117 96.5733183 77.8479117 97.2413378 77.7880221 97.3372416 77.5453113 97.38354 77.4696612 97.288463 77.2726556 96.5261932 76.8636722 95.4927471 75.4089835 95.4927471 73.9243499 95.4927471 73.605989 96.5261932 73.605989 97.257873 73.605989 98.1797069 74.3333333 98.8303645 74.893617 99.2114994L76.105595 100.007666C77.0606777 100.627734 78 101.549568 78 103.059226 78 104.80699 76.7423168 106 74.7730496 106M84.6297735 97.29754C84.6297735 95.7356501 84.5962529 95.5115189 83.6215781 95.4060914L83.3568516 95.3756345C83.2580089 95.3162827 83.2915295 95.0445139 83.3903721 95 84.10118 95.0304569 84.6624346 95.0445139 85.3405813 95.0445139L88.4468202 95.0445139C89.5048668 95.0445139 90.4795416 95.0445139 90.6780865 95 90.7769292 95.255369 90.8757719 96.3361968 90.9419535 96.9968762 90.8757719 97.0866849 90.6119049 97.1171417 90.5293927 97.0273331 90.2809967 96.3213588 90.132303 95.7965638 89.2728013 95.6013276 88.9255627 95.524795 88.3969692 95.5115189 87.6698308 95.5115189L86.4802805 95.5115189C85.9852076 95.5115189 85.9852076 95.5404139 85.9852076 96.1105037L85.9852076 99.114018C85.9852076 99.5349473 86.0341992 99.5349473 86.5301316 99.5349473L87.4884759 99.5349473C88.1829532 99.5349473 88.6943567 99.5044904 88.8929016 99.4451386 89.0914465 99.3842249 89.2074792 99.2936353 89.2899914 98.9187817L89.4223546 98.3026162C89.5048668 98.2128075 89.7850643 98.2128075 89.8521054 98.3174541 89.8521054 98.6790316 89.7850643 99.2631784 89.7850643 99.8356111 89.7850643 100.375244 89.8521054 100.946115 89.8521054 101.276455 89.7850643 101.38032 89.5048668 101.38032 89.4223546 101.290512L89.2728013 100.704803C89.2074792 100.434596 89.0914465 100.210465 88.7613978 100.134713 88.5293324 100.07458 88.1331022 100.059742 87.4884759 100.059742L86.5301316 100.059742C86.0341992 100.059742 85.9852076 100.07458 85.9852076 100.465053L85.9852076 102.582194C85.9852076 103.378758 86.0341992 103.887934 86.2989257 104.144084 86.496611 104.324483 86.8438497 104.489262 88.2981265 104.489262 89.5701889 104.489262 90.0497908 104.42991 90.41336 104.263569 90.7107476 104.113627 91.1568289 103.587271 91.5865797 102.807888 91.7026124 102.732136 91.9338184 102.777431 92 102.913315 91.8839673 103.43811 91.470547 104.59469 91.2556716 105 89.7687338 104.969543 88.2981265 104.953924 86.8275192 104.953924L85.3405813 104.953924C84.6297735 104.953924 84.0676594 104.969543 83.0929846 105 82.9941419 104.953924 82.9606213 104.714955 83.059464 104.625146L83.6052476 104.579071C84.5472613 104.5041 84.6297735 104.278407 84.6297735 102.703241L84.6297735 97.29754M98.6622173 99.8459758C98.6622173 100.141369 98.6622173 100.320472 98.7084735 100.384983 98.7555412 100.435064 98.9900683 100.468169 99.7853503 100.468169 100.346917 100.468169 100.940132 100.40196 101.392956 100.043753 101.814131 99.6999769 102.172819 99.1287136 102.172819 98.0192916 102.172819 96.7290686 101.408375 95.5059032 99.6757962 95.5059032 98.7084735 95.5059032 98.6622173 95.5704144 98.6622173 96.0279343L98.6622173 99.8459758zM97.3824624 97.5133884C97.3824624 95.9634231 97.3362062 95.6850066 96.695923 95.6035188L96.196843 95.5390076C96.0872888 95.4558222 96.0872888 95.1960799 96.2122617 95.1315688 97.0862605 95.0483834 98.1631373 95 99.6920264 95 100.659349 95 101.579604 95.0814878 102.297792 95.4897754 103.046818 95.8972143 103.592966 96.631453 103.592966 97.7739795 103.592966 99.3239447 102.422765 100.172776 101.64209 100.499576 101.564185 100.597191 101.64209 100.761016 101.720807 100.890887 102.968913 102.995987 103.795844 104.302338 104.856491 105.232657 105.121044 105.477969 105.512193 105.657072 105.932556 105.690177 106.011273 105.721583 106.026691 105.853152 105.948786 105.917663 105.808395 105.966896 105.558449 106 105.262247 106 103.935424 106 103.140142 105.590863 102.032428 103.943283 101.626672 103.339764 100.9872 102.213365 100.503539 101.479126 100.269823 101.119222 100.019066 100.957095 99.3950129 100.957095 98.6930548 100.957095 98.6622173 100.973223 98.6622173 101.315302L98.6622173 103.372868C98.6622173 105.08496 98.6930548 105.28104 99.597891 105.41176L99.925742 105.461841C100.019066 105.54248 99.9882284 105.819199 99.8949045 105.86928 99.1921349 105.836176 98.6622173 105.819199 98.0381644 105.819199 97.3824624 105.819199 96.8208959 105.836176 96.0872888 105.86928 95.9939649 105.819199 95.9631275 105.575585 96.0564514 105.461841L96.4459773 105.41176C97.351625 105.297168 97.3824624 105.08496 97.3824624 103.372868L97.3824624 97.5133884 97.3824624 97.5133884zM111.612454 96.7660666C111.254866 95.8594408 111.021868 95.5190349 110.352808 95.4381463L110.072887 95.4052853C109.963669 95.3083876 109.979849 95.0808885 110.103629 95 110.555063 95.032861 111.052611 95.0480276 111.721672 95.0480276 112.406103 95.0480276 112.950575 95.032861 113.603455 95 113.712673 95.0648794 113.743415 95.3083876 113.634198 95.4052853L113.401199 95.4381463C112.810614 95.5190349 112.685216 95.6159326 112.669844 95.7456913 112.701396 95.9074684 112.965946 96.7829184 113.448123 98.013941 114.163297 99.8929146 114.878472 101.755879 115.655941 103.601992 116.138927 102.532746 116.807178 100.863577 117.149394 100.006664 117.616199 98.9037151 118.332183 97.0736116 118.595924 96.3776331 118.720513 96.0372271 118.736694 95.8594408 118.736694 95.7456913 118.736694 95.6319418 118.580553 95.5021831 118.03689 95.4381463L117.75616 95.4052853C117.646942 95.3083876 117.678494 95.0648794 117.787712 95 118.222965 95.032861 118.81436 95.0480276 119.404945 95.0480276 119.918674 95.0480276 120.40085 95.032861 120.91377 95 121.022987 95.0648794 121.022987 95.3243968 120.944512 95.4052853L120.478516 95.4381463C120.104748 95.4693221 119.87175 95.6631176 119.669495 96.0043661 119.234242 96.7660666 118.627476 98.0779778 117.927673 99.7302949L117.087909 101.723018C116.464962 103.213558 115.734416 105.093374 115.469866 105.950287 115.422943 105.983991 115.360649 106 115.299163 106 115.220688 106 115.143022 105.983991 115.065356 105.950287 114.894652 105.27116 114.630103 104.475756 114.350181 103.79663L111.612454 96.7660666M127.863225 100.75067C127.7305 101.123937 127.747626 101.139946 128.208312 101.139946L130.233448 101.139946C130.71126 101.139946 130.743799 101.074224 130.59566 100.638606L129.706827 97.9970892C129.574958 97.6086557 129.426819 97.171352 129.328345 96.9767139L129.294949 96.9767139C129.245284 97.0576025 129.081732 97.446036 128.900198 97.9330525L127.863225 100.75067zM131.122281 102.193183C131.007538 101.836768 130.940747 101.787055 130.447521 101.787055L127.961699 101.787055C127.550678 101.787055 127.451348 101.836768 127.336604 102.177173L126.760318 103.877518C126.512849 104.606358 126.398106 105.043661 126.398106 105.221448 126.398106 105.416086 126.48031 105.512984 126.874206 105.545845L127.417952 105.595557C127.533552 105.675603 127.533552 105.934278 127.385413 106 126.957266 105.967139 126.446915 105.967139 125.672825 105.950287 125.129934 105.950287 124.537379 105.983991 124.092106 106 123.993632 105.934278 123.961093 105.675603 124.059567 105.595557L124.603313 105.545845C124.998065 105.512984 125.360277 105.335197 125.590621 104.752968 125.886898 104.007277 126.347585 102.954041 127.03947 101.139946L128.718663 96.7660666C128.949006 96.1821524 129.048337 95.8737648 128.998672 95.6159326 129.394279 95.5021831 129.673431 95.2106473 129.854966 95 129.95344 95 130.069039 95.032861 130.101578 95.1449253 130.315652 95.8594408 130.579391 96.603447 130.826003 97.3171199L133.081482 103.829491C133.559294 105.221448 133.773368 105.464956 134.480667 105.545845L134.92594 105.595557C135.040683 105.675603 135.007288 105.934278 134.92594 106 134.250324 105.967139 133.674038 105.950287 132.933343 105.950287 132.142984 105.950287 131.517033 105.983991 131.040077 106 130.908208 105.934278 130.891938 105.675603 131.007538 105.595557L131.484494 105.545845C131.830436 105.512984 132.06078 105.416086 132.06078 105.254309 132.06078 105.076522 131.978575 104.785829 131.846706 104.39571L131.122281 102.193183 131.122281 102.193183zM148.541835 102.986902C148.541835 103.472233 148.541835 105.400919 148.59112 105.820529 148.55883 105.919111 148.45941 106 148.280964 106 148.084673 105.723631 147.610516 105.157411 146.189746 103.553121L142.399041 99.2778246C141.958025 98.7739563 140.84741 97.446036 140.504114 97.0904634L140.470974 97.0904634C140.405544 97.2842589 140.389399 97.6566833 140.389399 98.1436997L140.389399 101.673305C140.389399 102.435848 140.422539 104.542321 140.68341 105.027652 140.798125 105.205439 141.108282 105.302336 141.517008 105.335197L142.023455 105.38491C142.122025 105.512984 142.10503 105.708464 141.990315 105.789353 141.255287 105.756492 140.68341 105.73964 140.079243 105.73964 139.3935 105.73964 138.951633 105.756492 138.379756 105.789353 138.265041 105.708464 138.249745 105.481808 138.347466 105.38491L138.788483 105.335197C139.164069 105.302336 139.42579 105.190272 139.507365 105.0108 139.735946 104.428571 139.719801 102.451858 139.719801 101.673305L139.719801 96.9935657C139.719801 96.5394102 139.703656 96.1981616 139.36036 95.8265799 139.131779 95.5990808 138.739198 95.4861739 138.347466 95.4381463L138.0696 95.4052853C137.971879 95.3083876 137.971879 95.0648794 138.10274 95 138.788483 95.0480276 139.654371 95.0480276 139.948382 95.0480276 140.210103 95.0480276 140.487969 95.032861 140.700405 95 141.026706 95.8265799 142.970919 97.9642283 143.493511 98.5633091L145.078282 100.329376C146.189746 101.593259 147.006349 102.484718 147.774517 103.261586L147.806807 103.261586C147.872237 103.180697 147.872237 102.92118 147.872237 102.581616L147.872237 99.1143623C147.872237 98.354347 147.856092 96.2478744 147.545086 95.7625431 147.447366 95.6159326 147.185645 95.5190349 146.532192 95.4381463L146.255176 95.4052853C146.140461 95.3083876 146.156606 95.0480276 146.287466 95 147.039489 95.032861 147.594371 95.0480276 148.214684 95.0480276 148.918271 95.0480276 149.343143 95.032861 149.898025 95 150.028036 95.0808885 150.028036 95.3083876 149.930315 95.4052853L149.701734 95.4381463C149.179142 95.5190349 148.851991 95.6487936 148.786561 95.7768671 148.509545 96.3616239 148.541835 98.368671 148.541835 99.1143623L148.541835 102.986902M156.994075 96.3517475C158.148712 95.4456219 159.620196 95 161.266151 95 162.120402 95 163.322772 95.1744457 164.065921 95.3811349 164.256028 95.4299136 164.366307 95.4605036 164.508682 95.4456219 164.525142 95.8110485 164.604971 96.812251 164.730886 97.7828636 164.651881 97.8919955 164.41404 97.9085306 164.303761 97.8134536 164.065921 96.7328824 163.354045 95.4927471 161.060407 95.4927471 158.639207 95.4927471 156.582586 97.0346486 156.582586 100.325968 156.582586 103.663585 158.686116 105.507253 161.280965 105.507253 163.322772 105.507253 164.224755 104.172041 164.588511 103.233672 164.699613 103.15513 164.936631 103.18572 165 103.297332 164.888898 104.124089 164.477409 105.173243 164.240392 105.475009 164.050284 105.507253 163.860176 105.570913 163.686528 105.633747 163.338408 105.761067 162.199407 106 161.186322 106 159.762571 106 158.401366 105.713942 157.246729 104.93431 155.980989 104.060428 155 102.613604 155 100.563247 155 98.7997745 155.791704 97.288463 156.994075 96.3517475"/>
    <g transform="translate(168 54)">
      <mask id="b" fill="white">
        <use xlink:href="#a"/>
      </mask>
      <path fill="#362627" d="M6.14985366 49.375625C6.14985366 51.046125 6.24521951 51.2971875 7.106 51.3589375L7.71136585 51.406875C7.80756098 51.5003125 7.77521951 51.7489375 7.67985366 51.796875 6.69136585 51.7651875 6.14985366 51.7489375 5.51214634 51.7489375 4.84209756 51.7489375 4.2682439 51.7651875 3.42239024 51.796875 3.32702439 51.7489375 3.2955122 51.5003125 3.39087805 51.406875L3.88512195 51.3589375C4.8097561 51.2655 4.84209756 51.046125 4.84209756 49.375625L4.84209756 48.5785625C4.84209756 47.71975 4.79482927 47.516625 4.33209756 46.64075L2.45131707 43.047875C1.90814634 42.0184375 1.66931707 41.9388125 1.19082927 41.861625L.744682927 41.783625C.649317073 41.6739375.664243902 41.455375.776195122 41.3928125 1.28619512 41.4245 1.86087805 41.439125 2.62629268 41.439125 3.35936585 41.439125 3.93321951 41.4245 4.33209756 41.3928125 4.47556098 41.439125 4.47556098 41.6901875 4.38019512 41.783625L4.17287805 41.8153125C3.61478049 41.90875 3.50282927 41.9705 3.50282927 42.0964375 3.50282927 42.251625 3.91746341 43.142125 3.99707317 43.2989375 4.5875122 44.4543125 5.17712195 45.6885 5.79907317 46.7666875 6.2924878 45.9379375 6.81907317 45.032 7.29673171 44.1276875 7.74370732 43.3151875 8.33331707 42.251625 8.33331707 42.06475 8.33331707 41.9705 8.04721951 41.861625 7.66409756 41.8153125L7.37717073 41.783625C7.26521951 41.6739375 7.28180488 41.455375 7.40868293 41.3928125 7.98253659 41.4245 8.44526829 41.439125 8.9395122 41.439125 9.4337561 41.439125 9.88073171 41.4245 10.4222439 41.3928125 10.5499512 41.4708125 10.5657073 41.6901875 10.4545854 41.783625L10.0076098 41.861625C9.17917073 41.98675 8.70068293 42.986125 7.9037561 44.3291875L6.89868293 46.031375C6.18136585 47.204625 6.14985366 47.3598125 6.14985366 48.563125L6.14985366 49.375625M32.0595122 1.620125C32.0595122 1.7135625 32.0794146 1.7168125 32.2452683 1.7168125 32.5106341 1.7168125 32.6217561 1.5543125 32.6217561 1.324375 32.6217561 1.1375 32.4865854.9465625 32.2286829.9465625 32.0595122.9465625 32.0595122.97175 32.0595122 1.054625L32.0595122 1.620125zM31.7850244 1.287C31.7850244 1.001 31.7850244.9530625 31.6191707.934375L31.5486829.9254375C31.5254634.901875 31.5254634.86125 31.5578049.8393125 31.8123902.8263125 31.9989756.8230625 32.2726341.8230625 32.5562439.8230625 32.9219512.882375 32.9219512 1.291875 32.9219512 1.529125 32.7179512 1.675375 32.5753171 1.730625 32.572 1.755 32.5753171 1.779375 32.593561 1.8013125 32.8083415 2.149875 32.9501463 2.367625 33.1110244 2.5114375 33.1757073 2.572375 33.239561 2.5748125 33.276878 2.5748125 33.2918049 2.59025 33.2918049 2.6170625 33.276878 2.6325 33.2528293 2.63575 33.1972683 2.6455 33.1350732 2.6455 32.8846341 2.6455 32.7693659 2.5618125 32.5852683 2.3066875 32.5189268 2.214875 32.4160976 2.01825 32.324878 1.89475 32.3008293 1.857375 32.2452683 1.844375 32.1772683 1.844375 32.0694634 1.844375 32.0595122 1.8533125 32.0595122 1.9036875L32.0595122 2.1620625C32.0595122 2.465125 32.0794146 2.5163125 32.2212195 2.5293125L32.3165854 2.53825C32.3439512 2.559375 32.3439512 2.6154375 32.312439 2.6284375 32.1880488 2.6235625 32.0827317 2.6170625 31.9367805 2.6170625 31.7933171 2.6170625 31.6780488 2.6235625 31.5578049 2.6284375 31.5312683 2.6154375 31.5254634 2.559375 31.5486829 2.53825L31.6191707 2.5293125C31.7850244 2.507375 31.7850244 2.45375 31.7850244 2.1620625L31.7850244 1.287zM32.3165854 3.150875C33.1019024 3.150875 33.703122 2.52525 33.703122 1.724125 33.703122.9254375 33.1019024.303875 32.3165854.303875 31.5312683.303875 30.9292195.9254375 30.9292195 1.724125 30.9292195 2.52525 31.5312683 3.150875 32.3165854 3.150875zM30.658878 1.7281875C30.658878.8393125 31.3645854.1226875 32.3165854.1226875 33.2677561.1226875 33.9726341.8393125 33.9726341 1.7281875 33.9726341 2.6154375 33.2677561 3.332875 32.3165854 3.332875 31.3645854 3.332875 30.658878 2.6154375 30.658878 1.7281875L30.658878 1.7281875z" mask="url(#b)"/>
    </g>
  </g>
</svg>
